<?xml version="1.0" encoding="UTF-8"?><svg xmlns="http://www.w3.org/2000/svg" viewBox="0 0 249.98 243.12"><defs><style>.cls-1{fill:#f05133;}.cls-2{fill:#bd3600;}</style></defs><g id="lupe"><path class="cls-1" d="M100.41,0C44.95,0,0,44.96,0,100.41s44.95,100.42,100.41,100.42,100.41-44.96,100.41-100.42S155.87,0,100.41,0Zm0,175.12c-41.26,0-74.71-33.44-74.71-74.71S59.15,25.7,100.41,25.7s74.71,33.45,74.71,74.71-33.45,74.71-74.71,74.71Z"/><rect class="cls-1" x="185.77" y="150.09" width="41.88" height="101.47" rx="19.05" ry="19.05" transform="translate(-81.29 211.59) rotate(-46.31)"/></g><g id="git"><g><ellipse class="cls-2" cx="88.92" cy="42.37" rx="24.21" ry="22.95"/><g><ellipse class="cls-2" cx="155.22" cy="104.17" rx="24.21" ry="22.95"/><ellipse class="cls-2" cx="88.92" cy="165.28" rx="24.21" ry="22.95"/><rect class="cls-2" x="78.85" y="60.13" width="20.33" height="87.66"/><polygon class="cls-2" points="163.75 95.93 149.7 109.87 82.82 49.32 96.87 35.38 163.75 95.93"/></g></g><g><ellipse class="cls-1" cx="87.71" cy="43.21" rx="24.21" ry="22.95"/><g><ellipse class="cls-1" cx="154" cy="105.01" rx="24.21" ry="22.95"/><ellipse class="cls-1" cx="87.71" cy="166.11" rx="24.21" ry="22.95"/><rect class="cls-1" x="77.63" y="60.96" width="20.33" height="87.66"/><polygon class="cls-1" points="162.53 96.76 148.49 110.7 81.61 50.15 95.65 36.21 162.53 96.76"/></g></g></g><g id="Layer_4"><path class="cls-1" d="M144.21,170.99c-.84-1.79-1.95-4.91-3.4-7.74-11.65,7.5-25.51,11.88-40.4,11.88-41.26,0-74.71-33.44-74.71-74.71,0-9.72,1.88-19,5.25-27.51-8.73-1.54-17.57-2.13-26.46-2.27C1.57,80.03,0,90.04,0,100.41c0,55.46,44.95,100.42,100.41,100.42,19.19,0,37.12-5.39,52.37-14.73-2.99-4.97-6.12-9.85-8.57-15.11Z"/><path class="cls-1" d="M84.35,25.15c-2.6,.32-5.33,.89-7.83,1.85,2.63-.4,5.23-1.07,7.83-1.85Z"/><path class="cls-1" d="M100.41,0C59.06,0,23.55,25,8.16,60.71c9.16,.28,18.28,1.09,27.26,2.86,6.4-11.27,15.64-20.71,26.75-27.35-3.9-9.87,.46-17.3,8.16-21.66,3.52-3.01,7.96-5.01,13-5.75,.24-.12,.5-.23,.77-.31,6.88-2.17,13.21-.76,18.63,2.61,4.3,1.71,7.9,4.39,9.43,8.38,.88,1.09,1.64,2.27,2.27,3.56,.03,.05,.06,.09,.09,.14h-.02c.19,.39,.36,.79,.52,1.19,.41,1.04,.45,1.98,.22,2.8,28.7,5.78,51.43,28.01,57.97,56.42,11.65,9.35,9.67,30.99-1.91,40.43-4.38,13.13-12.3,24.64-22.63,33.4,1.02,1.83,1.9,3.68,2.68,5.31,2.92,6.1,6.43,11.82,9.79,17.64,24.11-18.34,39.67-47.33,39.67-79.97C200.82,44.96,155.87,0,100.41,0Z"/></g></svg>