<?xml version="1.0" encoding="UTF-8"?><svg xmlns="http://www.w3.org/2000/svg" viewBox="0 0 249.98 243.12"><defs><style>.cls-1{fill:#f05133;}</style></defs><g id="lupe"><path d="M100.41,0C44.95,0,0,44.96,0,100.41s44.95,100.42,100.41,100.42,100.41-44.96,100.41-100.42S155.87,0,100.41,0Zm0,175.12c-41.26,0-74.71-33.44-74.71-74.71S59.15,25.7,100.41,25.7s74.71,33.45,74.71,74.71-33.45,74.71-74.71,74.71Z"/><rect x="185.77" y="150.09" width="41.88" height="101.47" rx="19.05" ry="19.05" transform="translate(-81.29 211.59) rotate(-46.31)"/></g><g id="git"><g><ellipse class="cls-1" cx="87.71" cy="43.21" rx="24.21" ry="22.95"/><g><ellipse class="cls-1" cx="154" cy="105.01" rx="24.21" ry="22.95"/><ellipse class="cls-1" cx="87.71" cy="166.11" rx="24.21" ry="22.95"/><rect class="cls-1" x="77.63" y="60.96" width="20.33" height="87.66"/><polygon class="cls-1" points="162.53 96.76 148.49 110.7 81.61 50.15 95.65 36.21 162.53 96.76"/></g></g></g></svg>