<?xml version="1.0" encoding="UTF-8"?><svg xmlns="http://www.w3.org/2000/svg" viewBox="0 0 251.73 249.11"><defs><style>.cls-1{fill:#fff;font-family:FranklinGothic-Medium, 'Franklin Gothic Medium';font-size:64.05px;}.cls-2{fill:#f05133;}.cls-3{letter-spacing:-.05em;}.cls-4{fill:#bd3600;}.cls-5{fill:#1089ff;}</style></defs><g id="lupe"><path class="cls-2" d="M100.41,0C44.95,0,0,44.96,0,100.41s44.95,100.42,100.41,100.42,100.41-44.96,100.41-100.42S155.87,0,100.41,0Zm0,175.12c-41.26,0-74.71-33.44-74.71-74.71S59.15,25.7,100.41,25.7s74.71,33.45,74.71,74.71-33.45,74.71-74.71,74.71Z"/><rect class="cls-2" x="185.77" y="150.09" width="41.88" height="101.47" rx="19.05" ry="19.05" transform="translate(-81.29 211.59) rotate(-46.31)"/></g><g id="git"><g><ellipse class="cls-4" cx="91.41" cy="43.69" rx="24.21" ry="22.95"/><g><ellipse class="cls-4" cx="157.71" cy="105.49" rx="24.21" ry="22.95"/><ellipse class="cls-4" cx="91.41" cy="166.6" rx="24.21" ry="22.95"/><rect class="cls-4" x="81.34" y="61.45" width="20.33" height="87.66"/><polygon class="cls-4" points="166.24 97.24 152.19 111.18 85.31 50.63 99.36 36.7 166.24 97.24"/></g></g><g><ellipse class="cls-2" cx="87.71" cy="43.21" rx="24.21" ry="22.95"/><g><ellipse class="cls-2" cx="154" cy="105.01" rx="24.21" ry="22.95"/><ellipse class="cls-2" cx="87.71" cy="166.11" rx="24.21" ry="22.95"/><rect class="cls-2" x="77.63" y="60.96" width="20.33" height="87.66"/><polygon class="cls-2" points="162.53 96.76 148.49 110.7 81.61 50.15 95.65 36.21 162.53 96.76"/></g></g></g><g id="Layer_4"><path class="cls-2" d="M144.21,170.99c-.84-1.79-1.95-4.91-3.4-7.74-11.65,7.5-25.51,11.88-40.4,11.88-41.26,0-74.71-33.44-74.71-74.71,0-9.72,1.88-19,5.25-27.51-8.73-1.54-17.57-2.13-26.46-2.27C1.57,80.03,0,90.04,0,100.41c0,55.46,44.95,100.42,100.41,100.42,19.19,0,37.12-5.39,52.37-14.73-2.99-4.97-6.12-9.85-8.57-15.11Z"/><path class="cls-2" d="M166.61,135.01c-4.5,8.59-10.61,16.21-17.94,22.42,1.02,1.83,1.9,3.68,2.68,5.31,2.92,6.1,6.43,11.82,9.79,17.64,11.57-8.81,21.17-20.07,28.02-33.02-7.48-2.32-17.79-6.57-22.56-12.36Z"/><path class="cls-2" d="M33.39,25.67c-10.75,9.65-19.42,21.57-25.22,35.03,9.16,.28,18.28,1.09,27.26,2.86,3.56-6.26,8-11.95,13.14-16.91-5.68-6.58-11-13.39-15.18-20.99Z"/></g><g id="Layer_5"><g><rect class="cls-5" x="86.1" y="173.19" width="165.63" height="69.88" rx="20.79" ry="20.79"/><text class="cls-1" transform="translate(95.97 229.47) scale(1.02 1)"><tspan x="0" y="0">BE</tspan><tspan class="cls-3" x="73.28" y="0">T</tspan><tspan x="100.93" y="0">A</tspan></text></g></g></svg>